Complete name                    : Le Gendarme de St Tropez 1964 1080p HDDVD x264-(Y)(°U°).mkv
Format                           : Matroska
File size                        : 1.90 GiB
Duration                         : 1h 39mn
Overall bit rate                 : 2 743 Kbps
Movie name                       : Le Gendarme de St Tropez 1964 1080p HDDVD x264-CtrlHD
Encoded date                     : UTC 2010-01-08 15:07:22
Writing application              : mkvmerge v3.0.0 ('Hang up your Hang-Ups') built on Dec 12 2009 15:20:35
Writing library                  : libebml v0.7.9 + libmatroska v0.8.1
Cover                            : Yes / Yes / Yes

Video
ID                               : 1
Format                           : AVC
Format/Info                      : Advanced Video Codec
Format profile                   : High@L4.1
Format settings, CABAC           : Yes
Format settings, ReFrames        : 4 frames
Muxing mode                      : Container profile=Unknown@4.1
Codec ID                         : V_MPEG4/ISO/AVC
Duration                         : 1h 39mn
Bit rate                         : 2 048 Kbps
Nominal bit rate                 : 2 100 Kbps
Width                            : 1 916 pixels
Height                           : 816 pixels
Display aspect ratio             : 2.35:1
Frame rate                       : 23.976 fps
Resolution                       : 8 bits
Colorimetry                      : 4:2:0
Scan type                        : Progressive
Bits/(Pixel*Frame)               : 0.055
Stream size                      : 1.42 GiB (75%)
Writing library                  : x264 core 80 r1376kGIT 3feaec2

Audio
ID                               : 2
Format                           : AC-3
Format/Info                      : Audio Coding 3
Codec ID                         : A_AC3
Duration                         : 1h 39mn
Bit rate mode                    : Constant
Bit rate                         : 640 Kbps
Channel(s)                       : 2 channels
Channel positions                : L R
Sampling rate                    : 48.0 KHz
Stream size                      : 455 MiB (23%)
Language                         : French

Text #1
ID                               : 3
Format                           : ASS
Codec ID                         : S_TEXT/ASS
Codec ID/Info                    : Advanced Sub Station Alpha
Title                            : Slovenian
Language                         : Slovenian

Text #2
ID                               : 4
Format                           : ASS
Codec ID                         : S_TEXT/ASS
Codec ID/Info                    : Advanced Sub Station Alpha
Title                            : Croatian
Language                         : Croatian

Text #3
ID                               : 5
Format                           : ASS
Codec ID                         : S_TEXT/ASS
Codec ID/Info                    : Advanced Sub Station Alpha
Title                            : English
Language                         : English

Text #4
ID                               : 6
Format                           : ASS
Codec ID                         : S_TEXT/ASS
Codec ID/Info                    : Advanced Sub Station Alpha
Title                            : Dutch
Language                         : Dutch

Text #5
ID                               : 7
Format                           : ASS
Codec ID                         : S_TEXT/ASS
Codec ID/Info                    : Advanced Sub Station Alpha
Title                            : Polish
Language                         : Polish

Text #6
ID                               : 8
Format                           : ASS
Codec ID                         : S_TEXT/ASS
Codec ID/Info                    : Advanced Sub Station Alpha
Title                            : Portuguese
Language                         : Portuguese

Text #7
ID                               : 9
Format                           : ASS
Codec ID                         : S_TEXT/ASS
Codec ID/Info                    : Advanced Sub Station Alpha
Title                            : Romanian
Language                         : Romanian

Text #8
ID                               : 10
Format                           : ASS
Codec ID                         : S_TEXT/ASS
Codec ID/Info                    : Advanced Sub Station Alpha
Title                            : Bulgarian
Language                         : Bulgarian

Text #9
ID                               : 11
Format                           : ASS
Codec ID                         : S_TEXT/ASS
Codec ID/Info                    : Advanced Sub Station Alpha
Title                            : Czech
Language                         : Czech

Text #10
ID                               : 12
Format                           : ASS
Codec ID                         : S_TEXT/ASS
Codec ID/Info                    : Advanced Sub Station Alpha
Title                            : Spanish
Language                         : Spanish

Text #11
ID                               : 13
Format                           : ASS
Codec ID                         : S_TEXT/ASS
Codec ID/Info                    : Advanced Sub Station Alpha
Title                            : French
Language                         : French

Source                           : Le.Gendarme.de.St.Tropez.1964.1080p.HDDVD.x264-CtrlHD.mkv
